<svg width="64" height="64" viewBox="0 0 40 40" fill="none" xmlns="http://www.w3.org/2000/svg">
    <g>
        <path d="M20.162 23.389c-.21 0-.414.061-.587.176a1.033 1.033 0 0 0-.159 1.608 1.062 1.062 0 0 0 1.153.225c.193-.079.358-.213.474-.385a1.035 1.035 0 0 0-.133-1.32 1.059 1.059 0 0 0-.748-.304ZM20.163 16.677a1.048 1.048 0 0 0 .979-.643 1.033 1.033 0 0 0-.228-1.139 1.063 1.063 0 0 0-1.628.156 1.036 1.036 0 0 0 .13 1.319c.198.196.467.307.747.307Z"
              fill="#074E31"
              fill-opacity="1">
        </path>
        <path d="M40.558 11.74c0-2.321-.697-4.59-2.002-6.52A11.85 11.85 0 0 0 33.225.898 12.014 12.014 0 0 0 26.362.23a11.924 11.924 0 0 0-6.082 3.212 11.953 11.953 0 0 0-8.4-3.438c-3.15 0-6.173 1.236-8.4 3.437A11.664 11.664 0 0 0 0 11.739c0 3.113 1.251 6.098 3.48 8.299a11.663 11.663 0 0 0-3.41 8.278 11.666 11.666 0 0 0 3.48 8.25 11.953 11.953 0 0 0 8.35 3.438 11.956 11.956 0 0 0 8.38-3.368 11.956 11.956 0 0 0 8.38 3.368 11.953 11.953 0 0 0 8.35-3.438 11.665 11.665 0 0 0 3.48-8.25 11.664 11.664 0 0 0-3.41-8.278 11.69 11.69 0 0 0 2.577-3.806c.597-1.424.903-2.95.901-4.492Zm-20.28-8.297a16.96 16.96 0 0 1 4.351.562l-4.352 4.297h-.01L15.93 4.005a16.923 16.923 0 0 1 4.348-.562ZM8.404 20.037v.007l-4.358 4.292a16.454 16.454 0 0 1 0-8.593l4.348 4.296.01-.002Zm3.473 0c0-2.09.799-4.104 2.236-5.638a8.441 8.441 0 0 1 5.518-2.636h.02c.206-.015.416-.022.625-.022h.183a3.968 3.968 0 0 1 2.648 1.28 3.874 3.874 0 0 1 1.013 2.737 3.88 3.88 0 0 1-1.187 2.666 3.975 3.975 0 0 1-2.816 1.111 4.949 4.949 0 0 0-2.13.497 4.95 4.95 0 0 0-1.663 1.303 4.879 4.879 0 0 0-.96 1.87 4.842 4.842 0 0 0 .737 4.033 8.347 8.347 0 0 1-3.09-3.04 8.218 8.218 0 0 1-1.13-4.161h-.004Zm8.406 16.596a16.922 16.922 0 0 1-4.349-.564l4.342-4.294v-.006h.01v.006l4.35 4.296c-1.42.375-2.881.565-4.35.563h-.003Zm3.804-9.195a8.397 8.397 0 0 1-3.801.898h-.347a3.968 3.968 0 0 1-2.704-1.275 3.874 3.874 0 0 1-1.02-2.749 3.882 3.882 0 0 1 1.203-2.676 3.976 3.976 0 0 1 2.749-1.096c.926 0 1.834-.257 2.62-.74a4.916 4.916 0 0 0 1.828-2 4.844 4.844 0 0 0-.53-5.151 8.364 8.364 0 0 1 3.356 3.059 8.226 8.226 0 0 1 1.241 4.341c0 1.533-.43 3.036-1.24 4.342a8.364 8.364 0 0 1-3.357 3.06l.002-.013Zm12.426-3.09-4.351-4.309v-.007l4.348-4.296a16.454 16.454 0 0 1 0 8.593"
              fill="#074E31"
              fill-opacity="1">
        </path>
    </g>
</svg>
